<svg width="41" height="49" fill="none" xmlns="http://www.w3.org/2000/svg"><path d="M30.56 25.744l-10.914-6.3a.711.711 0 0 0-.973.255L7.237 39.507a.712.712 0 0 0 .265.971l10.913 6.3a.711.711 0 0 0 .973-.255l11.436-19.808a.712.712 0 0 0-.265-.971z" stroke="#fff" stroke-width=".75" stroke-miterlimit="10"/><path d="M19.471 19.342l.554-.473a.707.707 0 0 1 .788-.09.718.718 0 0 1 .219.172l2.207 2.565M7.49 40.49l-4.977-5.785a.717.717 0 0 1-.171-.517.703.703 0 0 1 .246-.484L18.3 20.339m-5.577 23.154l-.988.842a.712.712 0 0 1-.519.166.722.722 0 0 1-.488-.248L7.49 40.491m14.518-12.534c.94.543 2.137.227 2.674-.704a1.955 1.955 0 0 0-.727-2.668 1.955 1.955 0 0 0-2.674.704 1.955 1.955 0 0 0 .727 2.668z" stroke="#fff" stroke-width=".75" stroke-miterlimit="10"/><path d="M22.26 27.52a1.45 1.45 0 0 0 1.98-.52 1.45 1.45 0 0 0-.539-1.978 1.45 1.45 0 0 0-1.982.522 1.45 1.45 0 0 0 .54 1.977z" stroke="#fff" stroke-width=".75" stroke-miterlimit="10"/><path d="M23.19 26.194c.743-1.651 1.534-3.365 2.949-4.496 1.118-.894 2.53-1.335 3.82-1.951a15.375 15.375 0 0 0 5.324-4.244 15.318 15.318 0 0 0 2.96-6.124" stroke="#fff" stroke-width=".75" stroke-miterlimit="10"/></svg>