<svg width="27" height="32" fill="none" xmlns="http://www.w3.org/2000/svg"><path d="M25.2 14.286H1.8V31h23.4V14.286z" stroke="#fff" stroke-width=".75" stroke-miterlimit="10"/><path d="M26 11.332H1v2.954h25v-2.954z" stroke="#fff" stroke-width=".75" stroke-miterlimit="10"/><path d="M14.264 11.332h-1.797v2.954h1.797v-2.954zm-.167 3.08h-1.464v16.465h1.464V14.413z" stroke="#fff" stroke-width=".75" stroke-miterlimit="10"/><path d="M12.227 11.338c-1.702-1.314-4.73-3.922-5.563-6.6-1.062-3.415 3.879-5.311 5.354-2.054.758 1.679 1.324 4.369 1.35 8.654" stroke="#fff" stroke-width=".75" stroke-miterlimit="10"/><path d="M14.505 11.338c1.702-1.307 4.73-3.913 5.567-6.594 1.062-3.415-3.88-5.312-5.355-2.055-.76 1.674-1.326 4.364-1.352 8.649" stroke="#fff" stroke-width=".75" stroke-miterlimit="10"/></svg>