<svg width="20" height="31" fill="none" xmlns="http://www.w3.org/2000/svg"><path d="M16.98 11.822H3.925V30h13.27V12.02a1.115 1.115 0 0 1-.213-.198v0zm-.326-.328H3.924v-.9h12.73m-8.513-9.51l8.57 4.047a2.573 2.573 0 0 1 1.312 1.46 2.69 2.69 0 0 1-.067 1.994l-.359.817L4.445 3.189l.357-.811a2.554 2.554 0 0 1 1.409-1.362 2.434 2.434 0 0 1 1.924.07l.006-.002z" stroke="#fff" stroke-width=".5" stroke-miterlimit="10"/><path d="M17.416 9.827l.32-.725L4.577 2.888 3.924 4.38l12.797 6.044" stroke="#fff" stroke-width=".5" stroke-miterlimit="10"/><path d="M17.75 12.104c.605 0 1.096-.51 1.096-1.137 0-.628-.491-1.137-1.097-1.137s-1.097.51-1.097 1.137c0 .628.491 1.137 1.097 1.137zM2.047 27.38h1.876v1.564H1.468a.46.46 0 0 1-.33-.142.494.494 0 0 1-.138-.34c0-.288.11-.564.307-.768.196-.203.462-.317.74-.317v.002z" stroke="#fff" stroke-width=".5" stroke-miterlimit="10"/></svg>