<svg width="142" height="83" viewBox="0 0 142 83" fill="none" xmlns="http://www.w3.org/2000/svg"><path d="M.768.175L11.672.116l6.531 21.42L25.26 0h8.863l7.231 21.536L47.768.058 58.438 0 46.136 37.426h-8.98l-7.523-21.303-7.347 21.36h-8.98L.768.176zM68.933 5.53l9.855 3.142-11.37 35.272-9.856-3.143L68.933 5.53zM94.71 14.959l14.985 9.196c4.84 2.968 7.406 6.286 8.223 9.72.758 2.968.174 5.937-1.75 9.08l-.058.116c-2.974 4.831-7.522 6.461-12.479 5.705l.758 15.657-10.146-6.228-.467-13.504-.117-.058-3.732-2.328-5.89 9.545-8.746-5.355 19.418-31.547zm5.189 24.096c2.974 1.805 5.598 1.455 6.997-.873l.059-.116c1.516-2.503.525-4.831-2.449-6.636l-5.715-3.492-4.665 7.567 5.773 3.55zM128.415 37.367l9.271 4.424-12.129 25.319 16.211 7.741L137.861 83 112.32 70.835l16.095-33.468z" fill="#fff"/></svg>
